<svg width="185" height="12" fill="none" xmlns="http://www.w3.org/2000/svg"><path d="M117.764 4.648c0 .32-.086.64-.258.96-.173.32-.346.64-.691.8.863.4 1.295 1.12 1.295 2.08s-.259 1.76-.95 2.32c-.603.64-1.38.88-2.502.88h-5.004V1.528h4.659c.949 0 1.812.32 2.416.88.69.56 1.035 1.36 1.035 2.24Zm-3.623-.8h-1.812v1.68h1.812c.345 0 .604-.16.776-.4.173-.24.086-.56 0-.8-.172-.4-.431-.48-.776-.48Zm.517 3.84h-2.329v1.76h2.243c.345 0 .604-.16.777-.4.172-.24.086-.64 0-.88-.173-.4-.346-.48-.691-.48ZM134.159 8.088l2.157 3.2v.32h-3.193l-1.898-3.04h-1.467v3.04h-2.847V1.528h4.832c.69 0 1.294.08 1.898.32.604.24.949.64 1.294.96.259.32.604.88.69 1.28.087.56.173.96.087 1.44-.087.56-.259.96-.432 1.36-.345.56-.69.96-1.121 1.2Zm-2.416-1.68c.258 0 .604-.08.776-.24.173-.16.259-.32.345-.64.087-.24.087-.56 0-.8 0-.24-.172-.4-.345-.64-.172-.16-.431-.24-.776-.24h-2.158v2.48h2.158v.08ZM147.015 4.648c0 .32-.086.64-.259.96-.172.32-.345.64-.69.8.863.4 1.294 1.12 1.294 2.08s-.259 1.76-.949 2.32c-.604.64-1.38.88-2.502.88h-5.177V1.528h4.659c.949 0 1.812.32 2.416.88.949.56 1.208 1.36 1.208 2.24Zm-3.624-.8h-1.812v1.68h1.812c.345 0 .604-.16.777-.4.172-.24.086-.56 0-.8-.087-.4-.432-.48-.777-.48Zm.432 3.84h-2.244v1.76h2.244c.345 0 .604-.16.776-.4.173-.24.086-.64 0-.88-.086-.4-.345-.48-.776-.48ZM157.369 11.688l-.69-1.28h-4.315l-.69 1.28h-2.675v-.32l4.918-10h1.208l5.005 10v.32h-2.761Zm-1.64-3.52-1.208-2.72-1.208 2.72h2.416ZM170.657 11.768l-5.522-5.04v5.04h-2.933V1.448h1.035l5.522 5.04v-5.04h2.934v10.32h-1.036ZM178.595 1.528c1.122 0 2.157.24 3.02.8s1.381 1.12 1.812 1.92c.345.8.604 1.6.604 2.4 0 .88-.173 1.68-.604 2.4-.345.8-1.035 1.36-1.812 1.92-.863.56-1.898.8-3.02.8h-4.142V1.527h4.142Zm-1.381 2.32v5.52h1.295c.431 0 .949-.08 1.294-.24.345-.16.69-.4.863-.8.172-.32.345-.72.431-1.04.087-.32.087-.8 0-1.12-.086-.32-.259-.8-.431-1.04-.173-.32-.432-.64-.863-.8-.345-.16-.863-.24-1.294-.24h-1.295v-.24ZM28.978 8.247c-.26-.64-.432-1.36-.432-2.08s.173-1.44.432-2.08c.258-.64.69-1.12 1.208-1.52.517-.4 1.035-.72 1.639-.88.604-.16 1.294-.32 1.898-.32 1.122 0 2.157.32 3.02.88.863.64 1.38 1.52 1.553 2.64h-2.588c-.173-.88-.95-1.28-2.071-1.28-.69 0-1.38.24-1.812.72-.431.48-.69 1.12-.69 1.84s.258 1.28.69 1.76c.431.48 1.035.8 1.812.8.604 0 1.035-.16 1.467-.4.431-.24.604-.64.69-1.12h2.502c0 .88-.345 1.52-.862 2.16-.518.56-1.122.96-1.726 1.2-.69.24-1.38.32-2.157.32-.69 0-1.295-.08-1.899-.32-.604-.24-1.121-.48-1.639-.88a11.2 11.2 0 0 1-1.035-1.44ZM41.489 10.728v1.04h-2.157v-3.04h1.035l3.365-7.28h1.122l3.538 7.28h1.121v3.04h-2.157v-1.04H41.49Zm2.934-5.36-1.38 3.28h2.76l-1.38-3.28ZM57.107 1.608v2.16h-3.624v1.36h3.365v2.16h-3.365v1.68h3.796v2.16h-6.385v-9.52h6.213ZM63.492 5.529l-2.589 5.44h-2.416v-.32l4.487-9.04h1.035l4.487 9.04v.32H66.08l-2.588-5.44ZM77.211 10.97l-.604-1.201h-3.883l-.604 1.2h-2.416v-.32l4.487-9.04h1.122l4.4 9.04v.32h-2.502Zm-1.38-3.121-1.209-2.4-1.121 2.4h2.33ZM89.291 1.608v9.361h-2.588V7.21h-3.02v3.76h-2.589V1.61h2.589v3.44h3.02v-3.44h2.588ZM100.421 4.167c.259.64.432 1.36.432 2.16s-.173 1.44-.432 2.08c-.259.641-.69 1.121-1.208 1.521-.517.4-1.035.72-1.64.88-.603.24-1.293.32-1.897.32-.604 0-1.295-.08-1.899-.32-.604-.24-1.208-.48-1.64-.88-.517-.4-.862-.88-1.207-1.52a5.717 5.717 0 0 1-.431-2.16c0-.8.172-1.52.431-2.16.259-.64.69-1.12 1.208-1.52.518-.4 1.035-.72 1.64-.88.603-.24 1.294-.32 1.898-.32.69 0 1.294.08 1.898.32.604.24 1.208.48 1.64.88.517.48.948.96 1.207 1.6Zm-7.161 2c0 .56.086 1.04.345 1.44.259.4.604.72.949.88.345.16.776.24 1.208.24.431 0 .863-.08 1.208-.24.345-.16.69-.48.949-.88s.345-.88.345-1.44c0-.56-.172-.96-.431-1.36-.26-.4-.604-.72-.95-.88a2.831 2.831 0 0 0-1.121-.24c-.345 0-.863.08-1.208.24-.345.16-.69.48-.95.88-.258.48-.344.96-.344 1.36Z" fill="#9FA2A9"/><g clip-path="url(#a)" fill="#9FA2A9"><path d="M10.135 5.267.072 0v11.92l10.063-5.544V5.267Z"/><path d="M10.135 5.267 19.918 0v11.92L9.855 6.376l.28-1.109Z"/></g><defs><clipPath id="a"><path fill="#fff" transform="translate(.072)" d="M0 0h19.846v11.92H0z"/></clipPath></defs></svg>