<svg width="126" height="126" fill="none" xmlns="http://www.w3.org/2000/svg"><path d="m44.19 100.974-11.458 4.06V55.431c0-6.33 6.511-15.131 11.484-15.131l-.026 60.674Z" fill="url(#a)"/><path d="M49.895 76.588V15.712l11.484-3.985V59.87c0 6.33-6.31 16.72-11.484 16.72Z" fill="url(#b)"/><path d="M93.989 37.299a5.756 5.756 0 0 0 8.834-.126 5.897 5.897 0 0 0-.303-7.566A51.734 51.734 0 0 0 86.063 16.89a51.779 51.779 0 0 0-20.14-5.213v11.55A40.234 40.234 0 0 1 93.988 37.3ZM22.938 63.323a40.33 40.33 0 0 1 11.194-27.728 40.4 40.4 0 0 1 27.222-12.419V11.652a51.77 51.77 0 0 0-28.483 9.781 51.703 51.703 0 0 0-18.206 23.973 51.654 51.654 0 0 0-1.76 30.04 51.686 51.686 0 0 0 15.283 25.931V83.12a40.095 40.095 0 0 1-5.25-19.797Z" fill="#2C3F68"/><path d="M101.839 88.365a5.937 5.937 0 0 0-7.926 1.06A40.18 40.18 0 0 1 80.17 99.84a40.213 40.213 0 0 1-47.438-10.417v15.56a51.776 51.776 0 0 0 70.091-8.221 5.758 5.758 0 0 0 1.35-4.414 5.75 5.75 0 0 0-2.334-3.984Z" fill="#2C3F68"/><path d="M63.07 125.788a62.533 62.533 0 0 1-34.72-10.523A62.451 62.451 0 0 1 5.333 87.243a62.389 62.389 0 0 1-3.556-36.076 62.423 62.423 0 0 1 17.103-31.97A62.511 62.511 0 0 1 50.878 2.11a62.545 62.545 0 0 1 36.108 3.553 62.482 62.482 0 0 1 28.046 22.997 62.4 62.4 0 0 1 10.532 34.69 62.463 62.463 0 0 1-18.319 44.137 62.572 62.572 0 0 1-44.175 18.302Zm0-121.525a59.2 59.2 0 0 0-32.872 9.964 59.122 59.122 0 0 0-21.79 26.532 59.063 59.063 0 0 0-3.362 34.156 59.098 59.098 0 0 0 16.199 30.266 59.183 59.183 0 0 0 30.298 16.171 59.21 59.21 0 0 0 34.185-3.374 59.152 59.152 0 0 0 26.546-21.782 59.073 59.073 0 0 0 9.959-32.847 59.137 59.137 0 0 0-17.352-41.767A59.241 59.241 0 0 0 63.07 4.263Z" fill="url(#c)"/><defs><linearGradient id="a" x1="75.589" y1="8.5" x2="1.257" y2="144.933" gradientUnits="userSpaceOnUse"><stop stop-color="#BC8459"/><stop offset=".28" stop-color="#97623E"/><stop offset=".42" stop-color="#C3825A"/><stop offset=".55" stop-color="#EA9E72"/><stop offset=".63" stop-color="#F9A97B"/><stop offset=".71" stop-color="#E79B70"/><stop offset=".88" stop-color="#BA7753"/><stop offset="1" stop-color="#975B3D"/></linearGradient><linearGradient id="b" x1="77.684" y1="94.871" x2="35.998" y2="-1.261" gradientUnits="userSpaceOnUse"><stop stop-color="#BC8459"/><stop offset=".28" stop-color="#97623E"/><stop offset=".42" stop-color="#C3825A"/><stop offset=".55" stop-color="#EA9E72"/><stop offset=".63" stop-color="#F9A97B"/><stop offset=".71" stop-color="#E79B70"/><stop offset=".88" stop-color="#BA7753"/><stop offset="1" stop-color="#975B3D"/></linearGradient><linearGradient id="c" x1=".601" y1="63.349" x2="125.564" y2="63.349" gradientUnits="userSpaceOnUse"><stop stop-color="#BC8459"/><stop offset=".28" stop-color="#97623E"/><stop offset=".42" stop-color="#C3825A"/><stop offset=".55" stop-color="#EA9E72"/><stop offset=".63" stop-color="#F9A97B"/><stop offset=".71" stop-color="#E79B70"/><stop offset=".88" stop-color="#BA7753"/><stop offset="1" stop-color="#975B3D"/></linearGradient></defs></svg>