<svg width="324" height="76" fill="none" xmlns="http://www.w3.org/2000/svg"><path d="M103.099 33.142a5.892 5.892 0 0 1-2.316-.409 5.821 5.821 0 0 1-1.964-1.28 5.883 5.883 0 0 1-1.714-4.145c0-1.55.615-3.037 1.714-4.144a6.182 6.182 0 0 1 7.783-.553 5.162 5.162 0 0 1 2.039 2.901h-2.537a2.703 2.703 0 0 0-1.183-1.32 3.608 3.608 0 0 0-1.822-.491 3.562 3.562 0 0 0-1.426.249 3.52 3.52 0 0 0-1.974 1.976c-.173.44-.256.91-.242 1.382a3.549 3.549 0 0 0 1.012 2.58c.342.342.752.61 1.205.787.453.177.939.26 1.425.24.641.001 1.27-.168 1.822-.49a2.628 2.628 0 0 0 1.183-1.32h2.537a5.251 5.251 0 0 1-2.039 2.916 5.942 5.942 0 0 1-3.503 1.12ZM115.816 32.942V23.87h-3.113v-2.195h8.468v2.195h-3.113v9.072h-2.242ZM133.047 22.764a3.752 3.752 0 0 1 0 5.419 3.96 3.96 0 0 1-1.322.822 4.006 4.006 0 0 1-1.542.253h-1.463v3.684h-2.335V21.674h3.798a4.015 4.015 0 0 1 2.864 1.09Zm-1.556 3.884a1.536 1.536 0 0 0 .482-1.182 1.517 1.517 0 0 0-.482-1.167 1.783 1.783 0 0 0-1.292-.46h-1.432v3.27h1.432c.46.011.906-.154 1.245-.461h.047ZM148.846 31.437a5.905 5.905 0 0 1-1.914 1.262 5.971 5.971 0 0 1-4.515 0 5.905 5.905 0 0 1-1.914-1.262 5.658 5.658 0 0 1-1.302-1.887 5.59 5.59 0 0 1-.441-2.242 5.764 5.764 0 0 1 .697-2.753 5.853 5.853 0 0 1 1.931-2.103 5.986 5.986 0 0 1 5.554-.538c.9.369 1.693.95 2.309 1.693a5.804 5.804 0 0 1 1.227 2.567 5.755 5.755 0 0 1-.147 2.833 5.825 5.825 0 0 1-1.485 2.43Zm-6.693-1.535c.327.334.718.6 1.152.782a3.543 3.543 0 0 0 3.891-.782 3.64 3.64 0 0 0 1.044-2.548 3.64 3.64 0 0 0-1.044-2.548 3.498 3.498 0 0 0-1.151-.782 3.55 3.55 0 0 0-2.74 0 3.502 3.502 0 0 0-1.152.782 3.64 3.64 0 0 0-1.044 2.548c0 .95.374 1.864 1.044 2.548ZM157.999 32.942h-2.008V21.674h2.35v7.353l5.837-7.353h2.023v11.268h-2.319v-7.369l-5.883 7.369Zm5.245-12.665a2.964 2.964 0 0 1-1.992.767c-.738 0-1.45-.274-1.993-.767a2.651 2.651 0 0 1-.809-2.01h1.448c-.024.397.11.788.373 1.09a1.393 1.393 0 0 0 .981.4 1.407 1.407 0 0 0 .98-.4c.263-.302.397-.693.374-1.09h1.447a2.625 2.625 0 0 1-.809 2.01ZM176.942 33.142a5.942 5.942 0 0 1-3.503-1.121 5.144 5.144 0 0 1-2.023-2.917h2.522a2.696 2.696 0 0 0 1.182 1.32 3.607 3.607 0 0 0 1.822.492 3.676 3.676 0 0 0 2.272-.722 3.262 3.262 0 0 0 1.245-1.872h-4.887v-2.027h4.887a3.31 3.31 0 0 0-1.245-1.873 3.676 3.676 0 0 0-2.272-.721c-.641 0-1.27.17-1.822.491-.529.301-.945.765-1.182 1.32h-2.522a5.067 5.067 0 0 1 2.023-2.9 6.182 6.182 0 0 1 7.783.552 5.883 5.883 0 0 1 1.715 4.144c0 1.55-.616 3.038-1.715 4.145a5.796 5.796 0 0 1-1.962 1.283 5.867 5.867 0 0 1-2.318.406ZM188.413 32.942V21.675h2.335v4.497h4.965v-4.497h2.335v11.267h-2.335v-4.605h-4.965v4.605h-2.335ZM204.072 32.942V21.675h7.113v2.195h-4.778v2.318h3.798v2.18h-3.814V30.7h4.779v2.18l-7.098.061ZM223.42 22.765a3.81 3.81 0 0 1 1.135 2.709c0 1.016-.408 1.99-1.135 2.71a4 4 0 0 1-2.864 1.074h-1.557v3.684h-2.319V21.675h3.798c.54-.024 1.078.06 1.584.248a4 4 0 0 1 1.358.842Zm-1.557 3.883a1.526 1.526 0 0 0 .483-1.182 1.516 1.516 0 0 0-.483-1.166 1.74 1.74 0 0 0-1.276-.46h-1.448v3.269h1.448c.45.006.885-.159 1.214-.46h.062ZM236.573 21.675v2.195h-4.421v9.072h-2.35V21.675h6.771ZM250.675 31.438a5.942 5.942 0 0 1-3.028 1.587 5.988 5.988 0 0 1-3.411-.335 5.896 5.896 0 0 1-2.65-2.146 5.783 5.783 0 0 1-.998-3.236 5.797 5.797 0 0 1 1.834-3.93 5.957 5.957 0 0 1 4.073-1.604c1.517 0 2.975.575 4.074 1.604a5.797 5.797 0 0 1 1.834 3.93 5.596 5.596 0 0 1-.433 2.24 5.652 5.652 0 0 1-1.295 1.89Zm-6.693-1.535c.325.334.715.6 1.147.78a3.53 3.53 0 0 0 2.733 0 3.482 3.482 0 0 0 1.147-.78 3.64 3.64 0 0 0 1.044-2.548 3.64 3.64 0 0 0-1.044-2.549 3.482 3.482 0 0 0-1.147-.78 3.532 3.532 0 0 0-2.733 0 3.482 3.482 0 0 0-1.147.78 3.64 3.64 0 0 0-1.044 2.549c0 .95.374 1.864 1.044 2.548ZM264.559 21.675v2.195h-4.405v9.072h-2.35V21.675h6.755ZM276.389 22.764a3.81 3.81 0 0 1 1.135 2.71c0 1.015-.408 1.99-1.135 2.71a3.97 3.97 0 0 1-2.864 1.074h-1.463v3.684h-2.335V21.674h3.798a4.018 4.018 0 0 1 1.543.261c.492.187.941.47 1.321.83Zm-1.557 3.884a1.628 1.628 0 0 0 .483-1.182 1.517 1.517 0 0 0-.483-1.167 1.82 1.82 0 0 0-1.292-.46h-1.432v3.27h1.432c.46.008.905-.157 1.246-.461h.046ZM283.502 33.019V30.9c.342.028.686.028 1.028 0 .313.013.626-.04.918-.153.294-.133.539-.353.7-.63l-4.451-8.504h2.677l3.113 5.94 3.004-5.94h2.646l-4.374 8.52a6.827 6.827 0 0 1-1.712 2.256 3.521 3.521 0 0 1-2.179.691 7.444 7.444 0 0 1-1.37-.061ZM305.014 32.942V23.87h-4.841v9.072h-2.335V21.675h9.51v11.267h-2.334ZM320.594 32.942V23.87h-4.84v9.072h-2.335V21.675h9.495v11.267h-2.32ZM100.765 57.656a3.97 3.97 0 0 1-1.448-.245 3.493 3.493 0 0 1-1.167-.737 3.62 3.62 0 0 1-.763-1.105 3.622 3.622 0 0 1 0-2.794c.182-.416.447-.792.778-1.105a3.554 3.554 0 0 1 1.152-.722c.463-.193.961-.292 1.463-.292a4.21 4.21 0 0 1 1.557.261c.44.176.835.45 1.152.798l-.654.614a2.495 2.495 0 0 0-.887-.614 2.95 2.95 0 0 0-2.133 0 2.541 2.541 0 0 0-.871.553 2.377 2.377 0 0 0-.56.83c-.14.33-.208.685-.203 1.043a2.651 2.651 0 0 0 .763 1.888c.25.236.546.42.871.537a2.949 2.949 0 0 0 2.133 0c.338-.138.64-.347.887-.614l.654.614a3.366 3.366 0 0 1-1.152.798 3.924 3.924 0 0 1-1.572.292ZM109.855 57.58v-6.14l.249.245h-2.631v-.844h5.697v.844h-2.584l.249-.245v6.14h-.98ZM118.167 57.58v-6.816h2.693a3.968 3.968 0 0 1 1.556.276c.402.176.743.465.981.83a2.549 2.549 0 0 1 0 2.547c-.239.36-.58.643-.981.814a3.7 3.7 0 0 1-1.556.291h-2.148l.435-.46v2.518h-.98Zm.98-2.426-.435-.476h2.116a2.233 2.233 0 0 0 1.432-.399 1.533 1.533 0 0 0 .51-1.136 1.513 1.513 0 0 0-.51-1.136 2.232 2.232 0 0 0-1.432-.399h-2.116l.435-.491v4.037ZM132.082 57.656c-.5.01-.998-.079-1.463-.26a3.271 3.271 0 0 1-1.167-.738 3.306 3.306 0 0 1-.779-1.105 3.336 3.336 0 0 1-.28-1.381 3.358 3.358 0 0 1 1.059-2.487 3.27 3.27 0 0 1 1.167-.737 4.064 4.064 0 0 1 1.463-.26 3.814 3.814 0 0 1 2.631.982c.326.314.586.69.762 1.105a3.618 3.618 0 0 1 0 2.794 3.36 3.36 0 0 1-.762 1.105 3.837 3.837 0 0 1-1.168.737c-.468.17-.964.253-1.463.245Zm0-.86c.368.007.734-.06 1.074-.199.318-.122.604-.31.841-.553.243-.216.435-.484.56-.782.14-.33.209-.686.202-1.044a2.599 2.599 0 0 0-.202-1.044 2.175 2.175 0 0 0-.56-.829 2.842 2.842 0 0 0-.841-.553 2.996 2.996 0 0 0-2.148 0c-.316.133-.606.32-.856.553a2.598 2.598 0 0 0-.763 1.873c-.006.358.063.713.203 1.044.131.309.321.59.56.828.242.243.534.432.856.553.344.123.709.175 1.074.154ZM141.11 57.58v-6.816h.981v5.265l4.093-5.265h.903v6.815h-.965v-5.25l-4.109 5.25h-.903ZM154.419 57.58v-6.14l.233.245h-2.599v-.844h5.697v.844h-2.6l.234-.245v6.14h-.965ZM163.696 56.796h4.031v.845h-5.012v-6.877h4.887v.844h-3.906v5.188Zm-.078-3.07h3.549v.83h-3.549v-.83ZM172.708 57.656h-.623v-.86c.103.015.208.015.312 0a.818.818 0 0 0 .7-.337c.203-.31.33-.662.374-1.029.092-.58.149-1.164.171-1.75l.109-2.87h4.872v6.815h-.981v-6.14l.249.246h-3.487l.218-.261v2.256c-.009.596-.055 1.19-.14 1.78a4.2 4.2 0 0 1-.327 1.26 1.741 1.741 0 0 1-.56.767 1.386 1.386 0 0 1-.887.123ZM187.635 53.143a2.922 2.922 0 0 1 1.883.537 1.962 1.962 0 0 1 .67 1.612 2.081 2.081 0 0 1-.716 1.72 3.146 3.146 0 0 1-2.008.567H184.6v-6.815h.98v2.379h2.055Zm-.218 3.653c.474.033.943-.103 1.323-.383a1.331 1.331 0 0 0 .452-1.12 1.223 1.223 0 0 0-.452-1.06 2.153 2.153 0 0 0-1.323-.338h-1.837v2.901h1.837ZM196.398 57.58h-.996v-6.816h.996v6.816Zm4.063-3.07h-4.172v-.783h4.172v.783Zm-.093-3.777h.98v6.816h-.98v-6.816ZM206.313 57.58l3.114-6.816h.98l3.113 6.815h-1.043l-2.801-6.263h.529l-2.802 6.263h-1.09Zm1.324-1.705.264-.782h3.86l.281.782h-4.405ZM222.284 57.58v-2.211l.264.23h-2.163a3.248 3.248 0 0 1-1.448-.291 2 2 0 0 1-.934-.814 2.359 2.359 0 0 1-.327-1.274c-.012-.47.113-.933.358-1.335.223-.372.562-.662.965-.83.465-.205.97-.304 1.479-.291h2.771v6.816h-.965Zm-4.67 0 1.712-2.41h1.012l-1.666 2.41h-1.058Zm4.67-2.533v-3.715l.264.276h-2.023a1.996 1.996 0 0 0-1.37.415 1.521 1.521 0 0 0-.483 1.182c-.011.214.023.43.1.63.078.201.198.384.352.536.377.3.855.449 1.338.415h2.086l-.264.26ZM235.576 57.58v-6.816h.965v6.815h-.965Zm.67-2.994v-.86h2.241v.86h-2.241Zm2.366-.307-.903-.138 2.475-3.377h1.058l-2.63 3.515Zm1.556 3.3-2.506-3.361.794-.476 2.848 3.837h-1.136ZM249.227 57.656c-.5.01-.998-.079-1.463-.26a3.48 3.48 0 0 1-1.183-.738 3.292 3.292 0 0 1-.763-1.105 3.336 3.336 0 0 1-.28-1.381 3.445 3.445 0 0 1 1.043-2.487 3.57 3.57 0 0 1 1.168-.737 4.2 4.2 0 0 1 1.478-.26 3.812 3.812 0 0 1 2.631.982c.321.318.58.693.762 1.105a3.618 3.618 0 0 1 0 2.794 3.62 3.62 0 0 1-.762 1.105 3.837 3.837 0 0 1-1.168.737c-.468.17-.964.253-1.463.245Zm0-.86a2.65 2.65 0 0 0 1.059-.199c.322-.121.614-.31.856-.553.239-.238.429-.52.56-.828.14-.33.209-.686.202-1.044a2.548 2.548 0 0 0-.189-1.013 2.599 2.599 0 0 0-.573-.86 2.73 2.73 0 0 0-1.915-.752 3.045 3.045 0 0 0-1.074.2c-.316.132-.606.32-.856.552a2.371 2.371 0 0 0-.56.829 2.6 2.6 0 0 0-.203 1.044c-.006.358.063.713.203 1.044.129.312.321.596.565.833.243.238.533.424.851.548a2.73 2.73 0 0 0 1.074.2ZM258.255 57.58v-6.816h.81l3.113 5.157h-.436l3.113-5.157h.809v6.815h-.98v-5.388h.233l-2.755 4.605h-.467l-2.739-4.605h.249v5.342l-.95.046ZM271.517 57.58v-6.816h5.961v6.815h-.965v-6.14l.234.246h-4.499l.249-.246v6.14h-.98ZM282.428 57.58l3.113-6.816h.981l3.113 6.815h-1.027l-2.802-6.263h.389l-2.786 6.263h-.981Zm1.339-1.705.264-.782h3.892l.295.782h-4.451ZM295.628 57.58h-.997v-6.816h.997v6.816Zm4.062-3.07h-4.156v-.783h4.156v.783Zm-.093-3.777h.996v6.816h-.996v-6.816ZM306.492 57.58v-6.816h.981v5.265l4.094-5.265h.918v6.815h-.981v-5.25l-4.093 5.25h-.919ZM322.493 57.58v-2.21l.249.23h-2.163a3.246 3.246 0 0 1-1.417-.338 1.892 1.892 0 0 1-.918-.814 2.359 2.359 0 0 1-.327-1.274 2.442 2.442 0 0 1 .343-1.335 2.15 2.15 0 0 1 .98-.83c.465-.205.97-.304 1.479-.291h2.771v6.816l-.997.046Zm-4.669 0 1.712-2.41h.996l-1.665 2.41h-1.043Zm4.669-2.533v-3.715l.249.276h-2.023a2.043 2.043 0 0 0-1.37.415 1.536 1.536 0 0 0-.467 1.182 1.51 1.51 0 0 0 .452 1.166c.37.301.844.45 1.323.415h2.085l-.249.26Z" fill="#fff"/><path d="M323.459 40.31H97.107v1.197h226.352V40.31Z" fill="url(#a)"/><path d="m26.954 60.895-7.067 2.471V33.172c0-3.853 4.016-9.21 7.082-9.21l-.015 36.933Z" fill="url(#b)"/><path d="M30.471 46.05V8.996l7.083-2.426v29.304c0 3.853-3.892 10.178-7.083 10.178Z" fill="url(#c)"/><path d="M57.664 22.135c.339.389.76.7 1.234.91a3.592 3.592 0 0 0 3.007-.043c.468-.223.88-.546 1.207-.944a3.56 3.56 0 0 0-.187-4.605 31.856 31.856 0 0 0-10.149-7.741 32.265 32.265 0 0 0-12.42-3.173v7.03c3.32.21 6.563 1.076 9.537 2.548a24.748 24.748 0 0 1 7.771 6.018ZM13.848 37.977c.024-6.29 2.495-12.332 6.902-16.88 4.408-4.546 10.417-7.252 16.788-7.558V6.523a32.2 32.2 0 0 0-17.565 5.954A31.52 31.52 0 0 0 8.745 27.07 31.057 31.057 0 0 0 7.66 45.356a31.381 31.381 0 0 0 9.425 15.784V50.027a24.162 24.162 0 0 1-3.237-12.05Z" fill="#fff"/><path d="M62.505 53.22a3.698 3.698 0 0 0-4.888.645 24.747 24.747 0 0 1-8.475 6.34 25.071 25.071 0 0 1-10.39 2.252c-3.588 0-7.133-.768-10.39-2.252a24.747 24.747 0 0 1-8.475-6.34v9.47c6.51 4.717 14.59 6.823 22.612 5.894 8.022-.929 15.388-4.823 20.613-10.897.32-.367.558-.795.701-1.258a3.452 3.452 0 0 0-.33-2.79 3.518 3.518 0 0 0-.978-1.064Z" fill="#fff"/><path d="M38.596 76a38.925 38.925 0 0 1-21.411-6.406A38.127 38.127 0 0 1 2.99 52.537a37.52 37.52 0 0 1-2.193-21.96 37.849 37.849 0 0 1 10.548-19.46A38.71 38.71 0 0 1 31.078.715a39.041 39.041 0 0 1 22.267 2.163c7.042 2.876 13.061 7.748 17.296 13.998a37.636 37.636 0 0 1 6.495 21.116c-.008 10.078-4.07 19.74-11.297 26.867-7.226 7.126-17.024 11.133-27.242 11.14Zm0-73.974a36.85 36.85 0 0 0-20.271 6.065 36.094 36.094 0 0 0-13.438 16.15 35.52 35.52 0 0 0-2.074 20.792 35.83 35.83 0 0 0 9.99 18.423 36.647 36.647 0 0 0 18.685 9.843 36.96 36.96 0 0 0 21.082-2.053 36.38 36.38 0 0 0 16.37-13.26 35.63 35.63 0 0 0 6.142-19.994c-.013-9.538-3.861-18.681-10.701-25.424C57.54 5.826 48.268 2.034 38.596 2.026Z" fill="url(#d)"/><defs><linearGradient id="a" x1="97.107" y1="40.908" x2="323.459" y2="40.908" gradientUnits="userSpaceOnUse"><stop stop-color="#BC8459"/><stop offset=".28" stop-color="#97623E"/><stop offset=".42" stop-color="#C3825A"/><stop offset=".55" stop-color="#EA9E72"/><stop offset=".63" stop-color="#F9A97B"/><stop offset=".71" stop-color="#E79B70"/><stop offset=".88" stop-color="#BA7753"/><stop offset="1" stop-color="#975B3D"/></linearGradient><linearGradient id="b" x1="46.317" y1="4.605" x2="1.391" y2="88.145" gradientUnits="userSpaceOnUse"><stop stop-color="#BC8459"/><stop offset=".28" stop-color="#97623E"/><stop offset=".42" stop-color="#C3825A"/><stop offset=".55" stop-color="#EA9E72"/><stop offset=".63" stop-color="#F9A97B"/><stop offset=".71" stop-color="#E79B70"/><stop offset=".88" stop-color="#BA7753"/><stop offset="1" stop-color="#975B3D"/></linearGradient><linearGradient id="c" x1="47.609" y1="57.18" x2="22.461" y2="-1.576" gradientUnits="userSpaceOnUse"><stop stop-color="#BC8459"/><stop offset=".28" stop-color="#97623E"/><stop offset=".42" stop-color="#C3825A"/><stop offset=".55" stop-color="#EA9E72"/><stop offset=".63" stop-color="#F9A97B"/><stop offset=".71" stop-color="#E79B70"/><stop offset=".88" stop-color="#BA7753"/><stop offset="1" stop-color="#975B3D"/></linearGradient><linearGradient id="d" x1=".072" y1="37.992" x2="77.136" y2="37.992" gradientUnits="userSpaceOnUse"><stop stop-color="#BC8459"/><stop offset=".28" stop-color="#97623E"/><stop offset=".42" stop-color="#C3825A"/><stop offset=".55" stop-color="#EA9E72"/><stop offset=".63" stop-color="#F9A97B"/><stop offset=".71" stop-color="#E79B70"/><stop offset=".88" stop-color="#BA7753"/><stop offset="1" stop-color="#975B3D"/></linearGradient></defs></svg>