<svg width="164" height="31" fill="none" xmlns="http://www.w3.org/2000/svg"><g clip-path="url(#a)" fill="#E30613"><path d="M87.549 25.806V5.194h12.737v4.782h-7.435v15.83H87.55ZM116.331 25.806v-8.08h-7.9v8.08h-5.302V5.194h5.302v7.695h7.9V5.194h5.302v20.612h-5.302ZM152.465 25.806V9.976h-6.204V5.194H164v4.782h-6.232v15.83h-5.303ZM138.443 25.806V14.071l-8.473 11.735h-4.428V5.194h5.303V16.82l8.309-11.625h4.592v20.612h-5.303ZM57.045 25.806V13.549l-5.303 6.486-5.303-6.459v12.23h-5.302V5.194h5.248l5.384 7.09 5.385-7.09h5.248v20.612h-5.357ZM72.433 18.55h4.948l-2.46-6.458-2.488 6.459Zm7.708 7.256-1.12-2.886h-8.255l-1.12 2.886h-5.33l8.172-20.612h4.92l8.173 20.612h-5.44ZM0 9.371c0-2.48.973-4.859 2.706-6.623A9.094 9.094 0 0 1 5.683.714 9.054 9.054 0 0 1 9.21 0H30.45v4.782H9.211a4.522 4.522 0 0 0-3.198 1.347 4.77 4.77 0 0 0-1.339 3.27l-.027 8.025a4.916 4.916 0 0 1-1.203 2.748 4.793 4.793 0 0 1-2.597 1.43L0 21.737V9.371ZM0 31v-4.782h21.21a4.522 4.522 0 0 0 3.199-1.346 4.77 4.77 0 0 0 1.339-3.27v-7.614a4.64 4.64 0 0 1 1.084-2.984 4.594 4.594 0 0 1 2.743-1.578l.847-.137v12.312c0 2.48-.973 4.86-2.706 6.623a9.093 9.093 0 0 1-2.977 2.035 9.056 9.056 0 0 1-3.528.714H0V31Z"/><path d="M17.985 21.71v-6.183l-2.76 3.38-2.788-3.38v6.184H8.774V9.563h3.471l2.952 3.903 2.98-3.903h3.471v12.148h-3.663Z"/></g><defs><clipPath id="a"><path fill="#fff" d="M0 0h164v31H0z"/></clipPath></defs></svg>