<svg width="157" height="22" fill="none" xmlns="http://www.w3.org/2000/svg"><path fill-rule="evenodd" clip-rule="evenodd" d="m84.849 3.009 6-.234v18.68h4.461V2.776l6.004.234V.545H84.849v2.464ZM145.608.545v20.91h4.465V2.776l6.927.234V.545h-11.392ZM33.014 15.119V.545h-4.46v20.91h2.366l11.225-14.57v14.57h4.461V.546h-2.37L33.015 15.119ZM84.897 8.65a25.206 25.206 0 0 0-3.778.574L77.972.544h-4.06L65.94 21.466h2.216c2.329-4.44 8.406-8.733 12.268-9.886.288-.087.397.128.093.32-3.679 2.15-7.338 4.76-8.996 7.368A13.977 13.977 0 0 0 77.96 17c4.37-2.925 6.937-8.33 6.937-8.33V8.65Zm-10.37 3.236a13.577 13.577 0 0 0-3.206 3.008l3.454-9.857h.128l1.924 5.6c-.8.35-1.57.77-2.3 1.252v-.003ZM79.15 17.415l1.388 4.05h5.007l-2.611-7.212a15.025 15.025 0 0 1-3.785 3.162ZM112.651 0c-5.824 0-10.635 4.3-10.635 10.998 0 6.494 4.038 11.002 10.635 11.002 5.825 0 10.632-4.508 10.632-11.002C123.283 4.3 119.245 0 112.651 0Zm0 20.084c-3.944 0-5.772-4.069-5.772-9.086s2.203-9.076 5.772-9.076c3.945 0 5.773 4.069 5.773 9.083s-2.203 9.08-5.773 9.08ZM18.935.545 12.206 14.5 5.898.545h-3.29L0 21.455h2.482L4.166 7.415l5.802 13.26h1.793L18.374 6.91l1.575 14.545h4.464L22.143.545h-3.208ZM133.418.548h-6.338v20.917h4.462v-7.176c.65.073 1.304.108 1.959.105 5.212 0 8.3-3.162 8.3-6.965 0-4.26-3.133-6.881-8.399-6.881h.016Zm-.934 11.947c-.32 0-.641-.023-.942-.052V2.457h.942c3.483 0 4.827 2.182 4.827 4.972 0 2.79-1.328 5.066-4.827 5.066ZM58.03.548H51.71v20.917h4.461v-7.176a16.9 16.9 0 0 0 1.96.105c5.211 0 8.3-3.162 8.3-6.965 0-4.26-3.134-6.881-8.4-6.881Zm-.92 11.947c-.32 0-.642-.023-.94-.052V2.457h.94c3.486 0 4.83 2.182 4.83 4.972 0 2.79-1.344 5.066-4.83 5.066Z" fill="#C2092A"/></svg>