<svg width="80" height="56" fill="none" xmlns="http://www.w3.org/2000/svg"><path d="M11 24c6.075 0 11-4.925 11-11S17.075 2 11 2 0 6.925 0 13s4.925 11 11 11Z" fill="url(#a)"/><path d="M19.466 2.274h48.621l9.253 11.06-33.344 39.687-33.353-40.01 8.823-10.737Z" stroke="#fff" stroke-width="3" stroke-miterlimit="10"/><path d="M30.842 8.187c-2.764-.391-6.05 7.076 2.587 7.645s34.043-2.786 34.389 8.673M20.797 25.125c4.323 4.774 9.463 2.285 26.645.68 14.646-1.36 14.056 4.417 12.202 8.324M30.522 36.975c7.5 5.648 19.28 6.124 25.414 1.401M50.206 2.571s7.828 3.661 9.202 8.869h9.033V2.945" stroke="#fff" stroke-width="3" stroke-miterlimit="10" stroke-linecap="round"/><defs><linearGradient id="a" x1="-5.632" y1="22.732" x2="28.469" y2="2.782" gradientUnits="userSpaceOnUse"><stop stop-color="#BC8459"/><stop offset=".28" stop-color="#97623E"/><stop offset=".42" stop-color="#C3825A"/><stop offset=".55" stop-color="#EA9E72"/><stop offset=".63" stop-color="#F9A97B"/><stop offset=".71" stop-color="#E79B70"/><stop offset=".88" stop-color="#BA7753"/><stop offset="1" stop-color="#975B3D"/></linearGradient></defs></svg>